<svg width="16" height="13" viewBox="0 0 16 13" fill="none" xmlns="http://www.w3.org/2000/svg">
<path d="M14.1875 2.0625H8.18773L6.23656 0.6C6.04221 0.454238 5.8059 0.375304 5.56297 0.375H1.8125C1.51413 0.375 1.22798 0.493526 1.017 0.704505C0.806026 0.915483 0.6875 1.20163 0.6875 1.5V11.0625C0.6875 11.3609 0.806026 11.647 1.017 11.858C1.22798 12.069 1.51413 12.1875 1.8125 12.1875H14.2501C14.5317 12.1871 14.8018 12.0751 15.0009 11.8759C15.2001 11.6768 15.3121 11.4067 15.3125 11.1251V3.1875C15.3125 2.88913 15.194 2.60298 14.983 2.392C14.772 2.18103 14.4859 2.0625 14.1875 2.0625Z" fill="white"/>
</svg>
